<svg width="26" height="26" viewBox="0 0 26 26" fill="none" xmlns="http://www.w3.org/2000/svg">
<g clip-path="url(#clip0_2325_10793)">
<path d="M13 13.8125C14.7658 13.8125 16.3258 14.235 17.5933 14.7875C18.7633 15.3075 19.5 16.4775 19.5 17.745V19.5H6.5V17.7558C6.5 16.4775 7.23667 15.3075 8.40667 14.7983C9.67417 14.235 11.2342 13.8125 13 13.8125ZM4.33333 14.0833C5.525 14.0833 6.5 13.1083 6.5 11.9167C6.5 10.725 5.525 9.75 4.33333 9.75C3.14167 9.75 2.16667 10.725 2.16667 11.9167C2.16667 13.1083 3.14167 14.0833 4.33333 14.0833ZM5.5575 15.275C5.15667 15.21 4.75583 15.1667 4.33333 15.1667C3.26083 15.1667 2.2425 15.3942 1.32167 15.795C0.52 16.1417 0 16.9217 0 17.7992V19.5H4.875V17.7558C4.875 16.8567 5.12417 16.0117 5.5575 15.275ZM21.6667 14.0833C22.8583 14.0833 23.8333 13.1083 23.8333 11.9167C23.8333 10.725 22.8583 9.75 21.6667 9.75C20.475 9.75 19.5 10.725 19.5 11.9167C19.5 13.1083 20.475 14.0833 21.6667 14.0833ZM26 17.7992C26 16.9217 25.48 16.1417 24.6783 15.795C23.7575 15.3942 22.7392 15.1667 21.6667 15.1667C21.2442 15.1667 20.8433 15.21 20.4425 15.275C20.8758 16.0117 21.125 16.8567 21.125 17.7558V19.5H26V17.7992ZM13 6.5C14.7983 6.5 16.25 7.95167 16.25 9.75C16.25 11.5483 14.7983 13 13 13C11.2017 13 9.75 11.5483 9.75 9.75C9.75 7.95167 11.2017 6.5 13 6.5Z" fill="black"/>
</g>
<defs>
<clipPath id="clip0_2325_10793">
<rect width="26" height="26" fill="white"/>
</clipPath>
</defs>
</svg>
